<?xml version="1.0" encoding="UTF-8"?>
<svg id="Layer_2" data-name="Layer 2" xmlns="http://www.w3.org/2000/svg" viewBox="0 0 753.27 274.32">
  <defs>
    <style>
      .cls-1 {
        fill: #efefe8;
      }
    </style>
  </defs>
  <g id="Layer_1-2" data-name="Layer 1">
    <g>
      <path class="cls-1" d="M251.09,249.14v-4.53h-79.34c-1.87,4.23-3.68,8.5-5.41,12.78v.11h-.04c-.57,1.4-1.13,2.79-1.68,4.19h86.47v-4.19h-3.13v-8.36h3.13ZM178.91,257.5h-6.29v-8.36h6.29v8.36ZM191.45,257.5h-6.27v-8.36h6.27v8.36ZM204.01,257.5h-6.29v-8.36h6.29v8.36ZM216.56,257.5h-6.27v-8.36h6.27v8.36ZM229.14,257.5h-6.27v-8.36h6.27v8.36ZM241.69,257.5h-6.28v-8.36h6.28v8.36ZM256,156.07c-.44.89-.99,1.83-1.65,2.83-.28.45-.57.9-.85,1.36h.72v8.36h-5.78c-.87,1.48-1.73,2.99-2.6,4.53h59.62c1.36-2.09,2.98-4.45,4.89-7.11.13-.18.25-.35.37-.51v-5.27h4.06c.07-.08.13-.15.19-.21,2.11-2.24,4.25-3.33,6.53-3.33,1.42,0,3.52.46,5.5,2.64.27.3.51.61.72.9h1.84v8.36h-1.5c-.25.53-.55,1.1-.91,1.73h.28c3.17,0,5.43,1.13,6.85,2.8h196.81c1.8-3.43,3.67-6.93,5.62-10.47v-2.42h1.33c.77-1.39,1.55-2.78,2.34-4.19h-284.38ZM266.78,168.62h-6.27v-8.36h6.27v8.36ZM279.33,168.62h-6.28v-8.36h6.28v8.36ZM291.89,168.62h-6.27v-8.36h6.27v8.36ZM304.45,168.62h-6.29v-8.36h6.29v8.36ZM342.11,168.62h-6.28v-8.36h6.28v8.36ZM354.69,168.62h-6.28v-8.36h6.28v8.36ZM367.23,168.62h-6.27v-8.36h6.27v8.36ZM379.76,168.62h-6.25v-8.36h6.25v8.36ZM392.33,168.62h-6.28v-8.36h6.28v8.36ZM404.87,168.62h-6.27v-8.36h6.27v8.36ZM417.43,168.62h-6.27v-8.36h6.27v8.36ZM430,168.62h-6.29v-8.36h6.29v8.36ZM442.54,168.62h-6.27v-8.36h6.27v8.36ZM455.11,168.62h-6.29v-8.36h6.29v8.36ZM467.65,168.62h-6.27v-8.36h6.27v8.36ZM480.23,168.62h-6.27v-8.36h6.27v8.36ZM492.78,168.62h-6.27v-8.36h6.27v8.36ZM505.31,168.62h-6.26v-8.36h6.26v8.36ZM517.87,168.62h-6.27v-8.36h6.27v8.36ZM530.42,168.62h-6.28v-8.36h6.28v8.36ZM0,156.07v4.19h3.12v8.36H0v4.53h28.23v71.46H0v4.53h3.12v8.36H0v4.19h147.1c.43-1.21.95-2.6,1.57-4.19h-1.16v-8.36h4.56c.76-1.8,1.6-3.76,2.53-5.9,1.84-4.2,3.66-8.28,5.47-12.22v-57.87h67.24c2.92-5.56,6.03-11.28,9.3-17.08H0ZM15.69,257.5h-6.28v-8.36h6.28v8.36ZM28.23,257.5h-6.27v-8.36h6.27v8.36ZM134.96,160.26h6.27v8.36h-6.27v-8.36ZM122.41,160.26h6.26v8.36h-6.26v-8.36ZM109.87,160.26h6.27v8.36h-6.27v-8.36ZM97.32,160.26h6.28v8.36h-6.28v-8.36ZM72.18,160.26h6.29v8.36h-6.29v-8.36ZM59.63,160.26h6.28v8.36h-6.28v-8.36ZM47.07,160.26h6.29v8.36h-6.29v-8.36ZM34.52,160.26h6.28v8.36h-6.28v-8.36ZM15.69,168.62h-6.28v-8.36h6.28v8.36ZM28.23,168.62h-6.27v-8.36h6.27v8.36ZM40.8,257.5h-6.28v-8.36h6.28v8.36ZM53.36,257.5h-6.29v-8.36h6.29v8.36ZM65.91,257.5h-6.28v-8.36h6.28v8.36ZM78.47,257.5h-6.29v-8.36h6.29v8.36ZM91.01,257.5h-6.27v-8.36h6.27v8.36ZM91.01,244.61h-56.49v-71.46h56.49v71.46ZM91.01,168.62h-6.27v-8.36h6.27v8.36ZM103.6,257.5h-6.28v-8.36h6.28v8.36ZM116.14,257.5h-6.27v-8.36h6.27v8.36ZM128.67,257.5h-6.26v-8.36h6.26v8.36ZM141.23,257.5h-6.27v-8.36h6.27v8.36ZM153.78,244.61h-56.47v-71.46h56.47v71.46ZM153.78,168.62h-6.27v-8.36h6.27v8.36ZM166.34,168.62h-6.27v-8.36h6.27v8.36ZM178.91,168.62h-6.29v-8.36h6.29v8.36ZM191.45,168.62h-6.27v-8.36h6.27v8.36ZM204.01,168.62h-6.29v-8.36h6.29v8.36ZM216.56,168.62h-6.27v-8.36h6.27v8.36ZM222.87,168.62v-8.36h6.27v8.36h-6.27ZM502.18,244.61v4.53h3.13v8.36h-3.13v4.19h32.08c.36-2.53,1.17-5.05,2.45-7.56v-4.99h3.15c1.14-1.52,2.45-3.03,3.94-4.53h-41.62ZM517.87,257.5h-6.27v-8.36h6.27v8.36ZM530.42,257.5h-6.28v-8.36h6.28v8.36ZM753.27,160.26v-4.19h-193.49c-.44.9-.99,1.84-1.66,2.84-.86,1.35-1.72,2.73-2.58,4.14v5.57h-3.32c-.87,1.48-1.74,2.99-2.61,4.53h43.59v11.49c.78-.25,1.57-.38,2.39-.38,1.38,0,2.71.39,3.9,1.12v-12.23h56.47v71.46h-56.47v-21.34c-1.94,2.18-4.03,4.24-6.29,6.18v15.16h-13.81c-.69,1.57-1.38,3.08-2.06,4.53h3.32v8.36h-6.29v-2.28c-.78,1.52-1.55,2.96-2.3,4.33-.41.73-.82,1.45-1.24,2.14h182.45v-4.19h-3.13v-8.36h3.13v-4.53h-28.23v-71.46h28.23v-4.53h-3.13v-8.36h3.13ZM568.09,168.62h-6.27v-8.36h6.27v8.36ZM580.65,168.62h-6.29v-8.36h6.29v8.36ZM593.2,168.62h-6.27v-8.36h6.27v8.36ZM593.2,257.5h-6.27v-8.36h6.27v8.36ZM605.78,257.5h-6.27v-8.36h6.27v8.36ZM618.33,257.5h-6.28v-8.36h6.28v8.36ZM630.85,257.5h-6.25v-8.36h6.25v8.36ZM643.42,257.5h-6.28v-8.36h6.28v8.36ZM655.96,257.5h-6.27v-8.36h6.27v8.36ZM737.6,249.14h6.27v8.36h-6.27v-8.36ZM725.05,249.14h6.28v8.36h-6.28v-8.36ZM699.91,160.26h6.29v8.36h-6.29v-8.36ZM687.36,160.26h6.28v8.36h-6.28v-8.36ZM674.8,160.26h6.29v8.36h-6.29v-8.36ZM662.25,160.26h6.28v8.36h-6.28v-8.36ZM605.78,168.62h-6.27v-8.36h6.27v8.36ZM618.33,168.62h-6.28v-8.36h6.28v8.36ZM630.85,168.62h-6.25v-8.36h6.25v8.36ZM643.42,168.62h-6.28v-8.36h6.28v8.36ZM655.96,168.62h-6.27v-8.36h6.27v8.36ZM668.53,257.5h-6.28v-8.36h6.28v8.36ZM681.09,257.5h-6.29v-8.36h6.29v8.36ZM693.64,257.5h-6.28v-8.36h6.28v8.36ZM706.2,257.5h-6.29v-8.36h6.29v8.36ZM718.75,257.5h-6.28v-8.36h6.28v8.36ZM718.75,244.61h-56.5v-71.46h56.5v71.46ZM718.75,168.62h-6.28v-8.36h6.28v8.36ZM731.33,168.62h-6.28v-8.36h6.28v8.36ZM743.87,168.62h-6.27v-8.36h6.27v8.36Z"/>
      <path class="cls-1" d="M376.63,249.14v-4.53h-7.23c-.8,1.63-1.54,3.14-2.25,4.53h.08v8.36h-4.56c-.27.46-.52.88-.77,1.28-.64,1.01-1.27,1.98-1.91,2.91h16.64v-4.19h-3.12v-8.36h3.12ZM335.62,244.61h-84.53v4.53h3.13v8.36h-3.13v4.19h76.28c.09-1.41.31-2.81.68-4.19h-4.78v-8.36h6.29v4.15c1.38-2.97,3.41-5.87,6.06-8.68ZM266.78,257.5h-6.27v-8.36h6.27v8.36ZM279.33,257.5h-6.28v-8.36h6.28v8.36ZM291.89,257.5h-6.27v-8.36h6.27v8.36ZM304.45,257.5h-6.29v-8.36h6.29v8.36ZM317,257.5h-6.28v-8.36h6.28v8.36Z"/>
      <path class="cls-1" d="M502.18,249.14v-4.53h-26.65c-2.5,5.64-4.88,11.35-7.13,17.08h33.78v-4.19h-3.13v-8.36h3.13ZM480.23,257.5h-6.27v-8.36h6.27v8.36ZM492.78,257.5h-6.27v-8.36h6.27v8.36ZM457.79,244.61h-81.16v4.53h3.13v8.36h-3.13v4.19h74.25c.42-1.21.94-2.6,1.56-4.19h-3.62v-8.36h6.29v1.75c.79-1.89,1.68-3.98,2.68-6.28ZM392.33,257.5h-6.28v-8.36h6.28v8.36ZM404.87,257.5h-6.27v-8.36h6.27v8.36ZM417.43,257.5h-6.27v-8.36h6.27v8.36ZM430,257.5h-6.29v-8.36h6.29v8.36ZM442.54,257.5h-6.27v-8.36h6.27v8.36Z"/>
    </g>
    <g>
      <path class="cls-1" d="M484.22,119.15c0,7.15-5.79,12.94-12.94,12.94h-157.7c-7.15,0-12.94-5.79-12.94-12.94v-3.01c0-1.1-.9-2-2-2h0c-1.1,0-2,.9-2,2v3.01c0,9.36,7.58,16.94,16.94,16.94h157.7c9.36,0,16.94-7.58,16.94-16.94v-3.01c0-1.1-.9-2-2-2h0c-1.1,0-2,.9-2,2v3.01ZM471.28,17.7h-43.36c-1.1,0-2-.9-2-2v-3.64c0-6.66-5.4-12.06-12.06-12.06h-42.87c-6.66,0-12.05,5.39-12.05,12.05v3.65c0,1.1-.9,2-2,2h-43.36c-9.36,0-16.94,7.58-16.94,16.94v4.31c0,1.1.9,2,2,2h0c1.1,0,2-.9,2-2v-4.31c0-7.15,5.79-12.94,12.94-12.94h47.36c1.1,0,2-.9,2-2v-7.64c0-4.45,3.61-8.06,8.06-8.06h42.86c4.45,0,8.06,3.61,8.06,8.06v7.64c0,1.1.9,2,2,2h47.36c7.15,0,12.94,5.79,12.94,12.94v4.31c0,1.1.9,2,2,2h0c1.1,0,2-.9,2-2v-4.31c0-9.36-7.58-16.94-16.94-16.94Z"/>
      <path class="cls-1" d="M44.57,64.87l-.28-6.26c-2.09-1.38-4.27-2.41-6.56-3.09-2.29-.68-4.67-1.02-7.15-1.02-6.33,0-11.4,1.92-15.21,5.77-3.81,3.84-5.71,8.99-5.71,15.43,0,4.52.97,8.56,2.9,12.09,1.93,3.54,4.68,6.34,8.24,8.4,3.56,2.06,7.32,3.09,11.29,3.09,3.14,0,6.25-.36,9.32-1.09,2.3-.54,4.61-1.66,6.93-3.38l.74.7c-.49,1.08-.95,2.17-1.37,3.27-2.74,1.36-5.5,2.39-8.28,3.08s-5.57,1.04-8.38,1.04c-5.77,0-10.83-1.11-15.21-3.34-4.37-2.23-7.73-5.3-10.07-9.23-2.34-3.93-3.52-8.36-3.52-13.31s1.18-9.37,3.55-13.27,5.71-6.93,10.04-9.07,9.64-3.22,15.94-3.22c3.3,0,7.17.54,11.6,1.62,2.2.52,4,.9,5.38,1.16-1.05,2.51-1.66,6.05-1.83,10.62h-2.36Z"/>
      <path class="cls-1" d="M87.3,85.33h-20.34l-2.38,5.66c-1.57,3.75-2.36,6.05-2.36,6.89,0,.54.15.93.44,1.16.29.23,1.04.42,2.23.56l3.38.39v2.21c-2.25-.16-4.78-.25-7.59-.25-3.38,0-6.34.08-8.89.25v-2.21l1.05-.04c1.64-.05,2.7-.22,3.18-.51.48-.29.99-1.01,1.53-2.16,1.66-3.38,3.36-7.02,5.1-10.93l9.67-21.9c2.58-5.81,4.34-10.03,5.27-12.66h2.39l17.79,41.38c1.2,2.81,1.99,4.51,2.39,5.08.4.57.86.98,1.37,1.23s1.68.42,3.48.51v2.21c-3.05-.16-5.95-.25-8.72-.25-2.58,0-6.01.08-10.3.25v-2.21l3.48-.21c1.24-.09,1.98-.22,2.21-.39.35-.26.53-.59.53-.98,0-.42-.35-1.52-1.05-3.3l-3.86-9.77ZM68.27,82.45h17.71l-8.85-21.12-8.86,21.12Z"/>
      <path class="cls-1" d="M122.02,98.76c2.3.12,4.54.18,6.71.18,4.41,0,7.85-.12,10.34-.35,1.73-.19,3.53-.53,5.38-1.02l2.11-8.26h2.29c-.59,4.43-1.04,8.57-1.37,12.41-2.11.35-4.99.53-8.65.53l-16.73-.28c-2.25,0-5.75.13-10.51.39v-1.86c1.88-.82,2.98-1.7,3.32-2.64.34-.94.51-4.65.51-11.14v-19.34c0-7.03-.17-10.95-.51-11.76s-1.29-1.21-2.87-1.21h-3.83v-2.21c5.58.16,9.28.25,11.11.25,2.44,0,5.74-.08,9.91-.25v2.21h-4.36c-1.24,0-2.03.36-2.36,1.07-.33.72-.49,3.69-.49,8.91v22.39l.11,9.91-.11,2.07Z"/>
      <path class="cls-1" d="M166.35,78.3v8.63l.04,4.97c0,3.1.04,5.36.11,6.8,3.43.26,7.1.39,11.02.39,2.63,0,4.84-.12,6.62-.35,1.15-.14,2.37-.44,3.66-.91.59-2.06,1.18-4.64,1.8-7.73h2.32c-.63,5.15-.95,8.58-.95,10.3l.07,1.59c-2.7.23-5.34.35-7.95.35l-5.52-.11c-6.09-.16-10.57-.25-13.43-.25s-6.39.08-10.93.25v-2.21h1.09c2.04,0,3.32-.2,3.85-.6.53-.4.88-1.34,1.05-2.81s.26-4.73.26-9.77v-19.3c0-3.16-.08-5.75-.23-7.77-.15-2.02-.32-3.22-.49-3.6s-.43-.69-.76-.9-1.34-.4-3.02-.56l-2.71-.28v-2.21h3.8l3.73.12c2.09.08,3.67.12,4.75.12l13.5-.21,6.4-.04c2.18-.02,4.38.06,6.61.25-.89,2.78-1.38,6.41-1.48,10.86h-2.39c0-2.58-.13-4.72-.39-6.43-2.77-1.03-6.16-1.55-10.2-1.55-3.21,0-6.57.14-10.09.42.02,2.2,0,4.4-.07,6.6l-.07,5.4v7.12c2.32.16,4.37.25,6.15.25,5.58,0,8.74-.19,9.47-.58s1.11-1.59,1.11-3.6v-2.29h2.39c-.16,3.54-.25,6.36-.25,8.47,0,2.23.08,4.85.25,7.88h-2.39v-2.04c0-2.25-.44-3.63-1.32-4.13-.88-.5-3.98-.76-9.3-.76-1.97,0-4.01.08-6.12.25Z"/>
      <path class="cls-1" d="M221.44,73.92c5.04.33,8.67,1.5,10.9,3.5,2.23,2.01,3.34,4.78,3.34,8.32,0,4.48-1.87,8.35-5.61,11.59s-8.49,4.87-14.26,4.87l-2.78-.08c-2.34-.11-4.32-.16-5.94-.16-1.17,0-2.61.05-4.32.14l-2.92.11v-1.58c1.45-.7,2.31-1.24,2.58-1.62.27-.37.43-1,.47-1.86.16-2.79.25-5.96.25-9.53v-21.9c0-5.86-.21-9.18-.63-9.95-.52-.91-1.77-1.37-3.76-1.37h-2.39v-2.21h2.92l3.23.12c1.69.08,3.01.12,3.97.12,1.48,0,4.39-.07,8.75-.22l5.13-.13c4.03,0,7.04.71,9.04,2.12,2.51,1.79,3.76,4.32,3.76,7.59,0,2.68-.88,5.04-2.65,7.06-1.77,2.02-4.8,3.72-9.09,5.08ZM209.77,72.92c1.17.07,2.25.11,3.23.11,4.66,0,8-.83,10.02-2.48s3.02-4.04,3.02-7.15c0-2.69-.84-4.76-2.53-6.21s-4.38-2.16-8.09-2.16c-1.64,0-3.42.15-5.34.46-.21,2.86-.32,7.18-.32,12.97v4.46ZM209.77,98.69c2.18.33,3.98.49,5.41.49,4.15,0,7.37-1.11,9.65-3.32s3.43-5.22,3.43-9.02c0-2.53-.5-4.62-1.51-6.28s-2.42-2.86-4.24-3.62c-1.82-.76-4.72-1.14-8.7-1.14-1.2,0-2.54.04-4.04.11v12.48l.04,4.43c.07,1.59.11,2.81.11,3.66,0,.63-.05,1.37-.14,2.21Z"/>
      <path class="cls-1" d="M316.88,55.47c.46-.72,1.73-1.08,3.8-1.08h2.3v-2.21c-3.61.16-6.11.24-7.49.24-1.2,0-3.26-.08-6.19-.24-3.84,8.68-7.27,16.1-10.27,22.26l-8.55,17.63-9.25-19.03c-3.71-7.6-6.98-14.55-9.82-20.86-2.47.16-4.36.24-5.7.24-1.06,0-3.62-.08-7.7-.24v2.21h1.86c1.78,0,2.97.21,3.57.64.6.42.94,1.03,1.04,1.82.21,1.55.31,4.73.31,9.53v19.9c0,3.8-.15,7.34-.45,10.62-.12,1.17-.44,1.98-.95,2.42-.52.45-1.55.67-3.1.67h-2.28v2.22c4.41-.17,7.36-.25,8.84-.25,2.04,0,4.7.08,7.96.25v-2.22h-1.3c-2.64,0-4.22-.43-4.72-1.28-.51-.86-.76-4.45-.76-10.78v-27.18l12.59,26.08c4.11,8.63,6.6,13.99,7.46,16.08h1.41c2.51-6.1,5.72-13.23,9.64-21.39l10.45-21.75v28.58c0,6.14-.19,9.62-.58,10.43-.38.81-1.5,1.21-3.35,1.21h-2.32v2.22c3.58-.17,7.01-.25,10.3-.25,2.97,0,6.09.08,9.35.25v-2.22h-2.02c-2.21,0-3.56-.42-4.04-1.26-.49-.85-.73-4.13-.73-9.85v-25.7c0-4.43.23-7,.69-7.71Z"/>
      <path class="cls-1" d="M428.26,60.11v24.3c0,5.53.11,9.39.32,11.57.16,1.66.44,2.68.83,3.04.39.36,1.51.63,3.38.79l2.26.18v2.21c-2.56-.16-4.87-.25-6.94-.25-1.43,0-4.72.08-9.86.25v-2.21h2.53c1.52,0,2.52-.21,2.99-.63s.76-1.25.88-2.5c.26-2.58.39-6.08.39-10.51v-17.47c0-3.28-.04-6.53-.11-9.74-.05-1.36-.23-2.29-.54-2.79-.32-.5-.78-.95-1.39-1.35-.61-.4-1.46-.6-2.57-.6h-2.18v-2.21c2.98.16,5.25.25,6.82.25,1.69,0,3.54-.08,5.55-.25,2.32,2.84,4.51,5.6,6.56,8.28,2.05,2.68,4.18,5.38,6.38,8.1l12.02,14.77c4.34,5.3,7.46,8.98,9.39,11.04v-22.57c0-9.44-.17-14.61-.51-15.49s-1.69-1.44-4.06-1.67l-2.64-.25v-2.21c3.77.16,6.7.25,8.79.25s4.99-.08,8.44-.25v2.21h-2.71c-2.18,0-3.43.73-3.76,2.18-.21.96-.32,6.09-.32,15.4v15.86c0,4.27.19,9.36.56,15.29-3.19-.49-5.04-.85-5.55-1.07s-1.01-.59-1.48-1.11c-2.6-2.88-5.33-6.08-8.19-9.6l-25.28-31.23Z"/>
      <path class="cls-1" d="M492.45,78.3v8.63l.04,4.97c0,3.1.04,5.36.11,6.8,3.43.26,7.1.39,11.02.39,2.63,0,4.84-.12,6.62-.35,1.15-.14,2.37-.44,3.66-.91.59-2.06,1.18-4.64,1.8-7.73h2.32c-.63,5.15-.95,8.58-.95,10.3l.07,1.59c-2.7.23-5.34.35-7.95.35l-5.52-.11c-6.09-.16-10.57-.25-13.43-.25s-6.39.08-10.93.25v-2.21h1.09c2.04,0,3.32-.2,3.85-.6.53-.4.88-1.34,1.05-2.81s.26-4.73.26-9.77v-19.3c0-3.16-.08-5.75-.23-7.77-.15-2.02-.32-3.22-.49-3.6s-.43-.69-.76-.9-1.34-.4-3.02-.56l-2.71-.28v-2.21h3.8l3.73.12c2.09.08,3.67.12,4.75.12l13.5-.21,6.4-.04c2.18-.02,4.38.06,6.61.25-.89,2.78-1.38,6.41-1.48,10.86h-2.39c0-2.58-.13-4.72-.39-6.43-2.77-1.03-6.16-1.55-10.2-1.55-3.21,0-6.57.14-10.09.42.02,2.2,0,4.4-.07,6.6l-.07,5.4v7.12c2.32.16,4.37.25,6.15.25,5.58,0,8.74-.19,9.47-.58s1.11-1.59,1.11-3.6v-2.29h2.39c-.16,3.54-.25,6.36-.25,8.47,0,2.23.08,4.85.25,7.88h-2.39v-2.04c0-2.25-.44-3.63-1.32-4.13-.88-.5-3.98-.76-9.3-.76-1.97,0-4.01.08-6.12.25Z"/>
      <path class="cls-1" d="M546.59,77.46c1.43-2.16,3.69-5.91,6.79-11.27l8.05-14.01h5.45v.88c-2.86,3.22-6.36,8.06-10.51,14.54s-6.63,10.82-7.45,13.02c-.28.77-.42,2.75-.42,5.93,0,4.23.11,7.59.32,10.07.14,1.33.38,2.14.72,2.4.34.27,1.54.5,3.6.68l2.67.28v2.21c-4.08-.16-7.28-.25-9.58-.25l-11.34.25v-2.21h3c2,0,3.2-.41,3.6-1.23.4-.82.6-4.51.6-11.09,0-1.92-.06-4.01-.18-6.28-3.02-5.55-5.81-10.34-8.37-14.39-2.55-4.05-4.71-7.01-6.47-8.88-.96-1.03-1.8-1.71-2.51-2.04s-1.92-.49-3.6-.49v-2.21c.96-.19,2.85-.56,5.66-1.12l2.78-.56c1.08.4,1.95.9,2.6,1.51,1.17,1.1,2.96,3.62,5.38,7.56,1.85,3.02,4.92,8.59,9.21,16.7Z"/>
      <path class="cls-1" d="M583.89,77.35v9.82c0,1.69.06,3.67.18,5.95.14,3.19.26,4.96.35,5.3.09.34.43.69,1.02,1.04s1.54.53,2.85.53h2.39v2.21c-3.05-.16-5.99-.25-8.82-.25s-6.67.08-11.78.25v-2.21h2.18c2.46,0,3.91-.42,4.36-1.25.45-.83.67-4.65.67-11.44v-21.2c0-6.14-.23-9.63-.69-10.46-.46-.83-1.76-1.25-3.92-1.25h-2.6v-2.21c3.87.16,7.46.25,10.79.25s6.62-.08,9.81-.25v2.21h-1.51c-2.18,0-3.53.18-4.04.53s-.83.93-.95,1.73c-.19,1.29-.28,4.43-.28,9.4v8.03c4.17.16,9.48.25,15.93.25,5.46,0,9.9-.08,13.32-.25v-6.87c0-4.01-.14-7.38-.42-10.11-.09-.96-.41-1.66-.95-2.08-.54-.42-1.64-.63-3.3-.63h-2.53v-2.21c3.59.16,6.98.25,10.2.25,3.47,0,7.08-.08,10.83-.25v2.21h-2.67c-1.8,0-2.96.2-3.46.6-.5.4-.81,1.13-.91,2.2-.11,1.07-.16,4.42-.16,10.07v19.44c0,7.2.21,11.21.62,12.04.41.83,1.69,1.25,3.85,1.25h2.74v2.21c-3.23-.16-6.57-.25-10.02-.25-3.94,0-7.61.08-11,.25v-2.21h2.43c1.78,0,2.93-.21,3.45-.62.52-.41.83-1.18.95-2.31.26-2.42.39-5.94.39-10.56v-9.15c-3.3-.16-7.52-.25-12.66-.25-7.31,0-12.84.08-16.59.25Z"/>
      <path class="cls-1" d="M665.29,85.33h-20.34l-2.38,5.66c-1.57,3.75-2.36,6.05-2.36,6.89,0,.54.15.93.44,1.16.29.23,1.04.42,2.23.56l3.38.39v2.21c-2.25-.16-4.78-.25-7.59-.25-3.38,0-6.34.08-8.89.25v-2.21l1.05-.04c1.64-.05,2.7-.22,3.18-.51.48-.29.99-1.01,1.53-2.16,1.66-3.38,3.36-7.02,5.1-10.93l9.67-21.9c2.58-5.81,4.34-10.03,5.27-12.66h2.39l17.79,41.38c1.2,2.81,1.99,4.51,2.39,5.08.4.57.86.98,1.37,1.23s1.68.42,3.48.51v2.21c-3.05-.16-5.95-.25-8.72-.25-2.58,0-6.01.08-10.3.25v-2.21l3.48-.21c1.24-.09,1.98-.22,2.21-.39.35-.26.53-.59.53-.98,0-.42-.35-1.52-1.05-3.3l-3.86-9.77ZM646.26,82.45h17.71l-8.85-21.12-8.86,21.12Z"/>
      <path class="cls-1" d="M737.63,59.77l-10.45,21.74c-3.92,8.16-7.13,15.29-9.64,21.39h-1.41c-.87-2.09-3.35-7.45-7.46-16.08l-12.6-26.08v27.18c0,6.33.25,9.92.76,10.78s2.08,1.28,4.72,1.28h1.31v2.21c-3.27-.16-5.92-.25-7.96-.25-1.48,0-4.43.08-8.84.25v-2.21h2.29c1.55,0,2.58-.22,3.09-.67.52-.44.83-1.25.95-2.43.3-3.28.46-6.82.46-10.62v-19.9c0-4.8-.11-7.98-.32-9.53-.09-.8-.44-1.41-1.04-1.83s-1.79-.63-3.57-.63h-1.86v-2.21c4.08.16,6.65.25,7.7.25,1.34,0,3.23-.08,5.7-.25,2.84,6.31,6.11,13.26,9.82,20.86l9.25,19.03,8.55-17.62c3-6.17,6.43-13.59,10.27-22.27,2.93.16,4.99.25,6.19.25,1.38,0,3.88-.08,7.49-.25v2.21h-2.3c-2.07,0-3.34.36-3.8,1.07-.46.72-.69,3.29-.69,7.72v25.7c0,5.72.24,9,.72,9.84.48.84,1.83,1.27,4.05,1.27h2.01v2.21c-3.26-.16-6.38-.25-9.35-.25-3.28,0-6.71.08-10.3.25v-2.21h2.32c1.85,0,2.97-.4,3.36-1.21s.58-4.28.58-10.42v-28.58Z"/>
      <g>
        <path class="cls-1" d="M375.09,96.85c.66.54,1.34,1.04,2.05,1.51-.71-.47-1.4-.97-2.05-1.51Z"/>
        <path class="cls-1" d="M416.79,77.04c0,14.11-11.44,25.55-25.56,25.55-.47,0-.94-.01-1.4-.04-.46-.02-.91-.06-1.35-.11-.04,0-.08,0-.11-.01-.43-.05-.86-.11-1.28-.18-.41-.06-.82-.14-1.22-.23-.11-.02-.21-.04-.31-.07-.38-.08-.75-.17-1.13-.28-.41-.11-.83-.24-1.24-.38-.04,0-.07,0-.1-.03-.33-.11-.66-.23-.99-.36-.16-.05-.32-.12-.48-.19-.25-.09-.5-.2-.74-.31-.13-.05-.25-.1-.36-.16-.35-.16-.7-.33-1.04-.51-.32-.17-.64-.34-.96-.52l-.36-.21c-.25-.15-.49-.3-.74-.47-.09-.05-.19-.11-.28-.17-.71-.47-1.39-.97-2.05-1.51-.34-.27-.67-.56-1-.85-.65-.59-1.26-1.2-1.85-1.85-.37-.4-.72-.82-1.05-1.25-.32-.39-.61-.79-.9-1.2-.3-.43-.59-.87-.87-1.32h0c-.17-.28-.33-.56-.49-.84-.11-.19-.21-.38-.3-.57-.16-.28-.31-.57-.44-.86-.18-.37-.35-.75-.51-1.13-.16-.38-.32-.77-.46-1.16-.02-.03-.02-.05-.03-.08-.27-.75-.51-1.53-.72-2.32-.08-.34-.16-.68-.24-1.03-.02-.1-.04-.18-.05-.27-.07-.31-.12-.62-.17-.93-.03-.14-.05-.29-.07-.44-.06-.37-.1-.75-.14-1.12-.04-.35-.06-.69-.08-1.05-.02-.19-.03-.39-.03-.59-.01-.31-.02-.63-.02-.95,0-1.6.15-3.15.43-4.66.05.31.11.61.19.91.04.22.1.45.16.67.05.21.11.43.18.63.07.24.15.48.24.72.3.86.66,1.7,1.09,2.49.09.18.19.36.29.53.08.14.16.28.25.42.09.15.18.3.28.45.67,1.04,1.45,2.01,2.33,2.89.18.19.37.37.56.55l.02.02c.19.17.38.34.57.5.13.11.26.22.4.33.27.22.55.43.84.63.14.11.28.2.42.29.89.6,1.83,1.12,2.81,1.55.21.1.43.19.65.27.25.1.51.2.77.29h.01c.27.09.54.18.81.25.26.08.52.15.78.21.02.01.04.01.05.01.26.07.52.13.79.17.41.09.83.15,1.25.2.45.06.9.1,1.35.12.29.01.58.02.88.02,10.08,0,18.24-8.16,18.24-18.24,0-8.49-5.8-15.62-13.65-17.65.84-.09,1.7-.13,2.57-.13,14.12,0,25.56,11.44,25.56,25.56Z"/>
        <path class="cls-1" d="M379.4,75.45c0,2.45-.26,4.78-.79,6.97-2.74-1.13-5.07-3.1-6.64-5.62-.11-4.51-.98-8.4-2.57-11.67-.23-.47-.47-.92-.72-1.35-1.14-1.99-2.52-3.66-4.13-5.02-.7-.59-1.45-1.12-2.24-1.59-3-1.78-6.56-2.67-10.66-2.67-3.76,0-6.99.78-9.72,2.35-2.72,1.57-4.85,3.88-6.4,6.91-1.55,3.04-2.32,6.55-2.32,10.53,0,5.3.91,9.91,2.72,13.84,1.82,3.92,4.26,6.86,7.31,8.82s6.53,2.94,10.45,2.94c3.63,0,6.81-.84,9.53-2.5,1.45-.89,2.74-2.01,3.85-3.36.69.99,1.45,1.93,2.26,2.82-4.98,4.04-11.05,6.06-18.18,6.06-5.09,0-9.47-1.03-13.15-3.09-3.69-2.07-6.59-5.08-8.73-9.04-2.13-3.96-3.2-8.5-3.2-13.61,0-7.71,2.49-13.92,7.46-18.63,4.97-4.71,11.6-7.06,19.88-7.06,4.59,0,8.63.7,12.09,2.1.53.21,1.04.44,1.54.7,2.03.98,3.85,2.23,5.45,3.75,4.61,4.37,6.91,10.18,6.91,17.42Z"/>
      </g>
    </g>
    <g>
      <path class="cls-1" d="M205.81,191.75c-1.01-1.19-2.53-1.79-4.55-1.79-1.79,0-3.63.47-5.51,1.41-.92.46-2.32,1.31-4.2,2.52.78-1.4,1.84-3.27,3.17-5.61,1.1-1.83,1.65-3.28,1.65-4.36,0-1.92-.78-2.88-2.34-2.88s-3.07,1.52-4.68,4.57c-.6,1.12-1.77,3.18-3.51,6.18-8.14,13.74-16.73,30.88-25.77,51.43-.3.67-.59,1.34-.89,2.02-2.99,6.87-5.25,12.36-6.75,16.45-1.56,4.19-2.34,6.93-2.34,8.2,0,.8.26,1.53.76,2.18.69.94,1.38,1.41,2.07,1.41,1.42,0,2.66-1.62,3.72-4.85.85-2.32,1.72-4.63,2.62-6.94.54-1.4,1.09-2.8,1.65-4.19,1.11-2.8,2.25-5.59,3.43-8.36.64-1.51,1.29-3.02,1.95-4.53,2.3-5.27,4.71-10.49,7.22-15.67,1.97,1.6,3.97,2.39,5.99,2.39,3.67,0,7.6-1.75,11.78-5.27,4.96-4.16,9.18-9.87,12.67-17.13,2.25-4.59,3.37-8.53,3.37-11.8,0-2.39-.5-4.18-1.51-5.38ZM198.65,204.29c-1.15,3-2.69,5.92-4.62,8.78-5.19,7.73-9.92,11.59-14.19,11.59-1.51,0-2.77-.54-3.78-1.62.82-1.54,2.5-4.77,5.03-9.69,2.75-5.34,5.62-9.48,8.6-12.43,3.12-3.04,5.76-4.57,7.92-4.57.83,0,1.44.21,1.83.64.39.42.58,1.05.58,1.89,0,1.22-.46,3.02-1.37,5.41Z"/>
      <path class="cls-1" d="M253.46,207.1c0,1.83-1.74,5.32-5.23,10.47-.24.36-.48.71-.73,1.05-2.8,3.98-5.73,7.07-8.77,9.27-2.35,1.64-4.46,2.46-6.34,2.46s-3.4-.87-4.27-2.6c-.55-1.08-.82-2.27-.82-3.58,0-4.17,1.44-8.92,4.33-14.26.69-1.26,2.76-4.87,6.2-10.82-2.92,1.51-5.71,3.56-8.35,6.16-1.06,1.04-2.1,2.17-3.11,3.38-.51.61-1.01,1.24-1.5,1.89-3.96,5.21-7.56,11.82-10.8,19.83-.6,1.83-1.51,2.74-2.75,2.74-.87,0-1.59-.31-2.14-.91-.55-.66-.82-1.46-.82-2.39,0-1.55,1.47-5.93,4.4-13.14,5.47-13.39,10.56-24.72,15.29-33.99,1.58-3.13,3.22-6.3,4.92-9.51.8-1.51,1.61-3.03,2.44-4.56.04-.08.09-.16.13-.24.66-1.22,1.32-2.44,2-3.66.35-.65.71-1.29,1.07-1.94.46-.83.92-1.66,1.39-2.49.77-1.39,1.56-2.78,2.36-4.19.48-.85.97-1.7,1.46-2.56,1.38-2.44,2.46-4.08,3.24-4.92.78-.84,1.61-1.26,2.48-1.26s1.54.44,2.13,1.33c.46.66.69,1.4.69,2.25,0,.14-.01.28-.03.43,0,.05-.01.11-.02.16-.05.37-.15.76-.3,1.19-.06.17-.12.34-.2.52-.09.22-.19.45-.31.68-.21.44-.47.9-.77,1.39-.08.13-.16.26-.24.39s-.17.26-.26.4c-.02.03-.04.07-.07.11-3.36,5.3-6.72,10.96-10.05,16.97-.8,1.42-1.59,2.87-2.38,4.34-.4.73-.8,1.47-1.19,2.22-.4.74-.8,1.49-1.19,2.24-5.28,10.03-8.51,16.86-9.71,20.51,3.4-3.6,6.8-6.62,10.19-9.06,4.37-3.09,7.49-4.63,9.37-4.63.78,0,1.54.33,2.27.98.83.75,1.24,1.62,1.24,2.6,0,1.26-.99,3.23-2.96,5.9-3.81,5.15-6.7,9.83-8.68,14.05-1.74,3.65-2.61,6.13-2.61,7.44s.59,1.9,1.79,1.9c2.48,0,6.65-4.5,12.53-13.49,1.12-1.71,2.13-2.62,3.06-2.73h.01c.06,0,.11,0,.17,0,.96,0,1.44.57,1.44,1.69Z"/>
      <path class="cls-1" d="M279.56,185.89c-2.43,0-5.14,1.05-8.12,3.16-5.1,3.6-9.53,8.66-13.29,15.17-.05.09-.1.18-.15.27-1.2,2.1-2.21,4.15-3.04,6.16-.15.37-.3.73-.44,1.09-.14.36-.27.72-.39,1.08-.12.31-.22.62-.32.93-.1.3-.2.6-.29.9-.37,1.21-.66,2.4-.89,3.58-.06.31-.11.62-.16.92-.05.34-.1.67-.15,1-.01.12-.03.23-.04.35-.07.61-.12,1.22-.15,1.82-.01.16-.02.33-.02.5-.01.31-.02.62-.02.93,0,1.78.32,3.3.96,4.56,1.24,2.53,3.19,3.8,5.85,3.8,5.74,0,11.69-5.18,17.84-15.53,5.65-9.55,8.47-17.44,8.47-23.67,0-4.68-1.88-7.02-5.65-7.02ZM272.88,207.17c-1.47,1.69-2.2,2.72-2.2,3.09,0,.52.57,1.24,1.72,2.18.05.05-.27.82-.96,2.32-.69,1.5-1.59,2.95-2.69,4.35-2.52,3.37-4.89,5.06-7.09,5.06-.92,0-1.68-.42-2.27-1.27-.42-.6-.62-1.31-.62-2.1,0-3,1.12-6.77,3.37-11.31,1.93-3.98,4.73-7.84,8.4-11.59,2.85-2.9,5.01-4.36,6.48-4.36.78,0,1.35.35,1.72,1.06.23.37.34.75.34,1.12,0,2.91-2.06,6.72-6.2,11.45Z"/>
      <g>
        <path class="cls-1" d="M319.74,218.4h.01c0-.06.01-.1.02-.15-.01.05-.02.1-.03.15Z"/>
        <path class="cls-1" d="M331.21,178.58c0,1.08-.43,1.88-1.3,2.39-.46.28-1.66.52-3.59.7h-.06c-.47,0-1.64.25-3.52.74-.26.07-.53.14-.82.22-1.58.42-3.58,1-5.99,1.71-1.7.52-3.38,1.06-5.03,1.62-2.99,4.73-5.74,10.02-8.27,15.87-3.62,8.34-5.44,14.57-5.44,18.69,0,1.17.24,2.06.73,2.66.48.61,1.2.92,2.17.92,2.29,0,5.07-2.2,8.33-6.6,2.07-2.72,3.9-5.44,5.51-8.15.87-1.55,1.81-2.32,2.82-2.32.49,0,.91.14,1.28.43.08.05.16.12.24.2.36.42.55.84.55,1.27,0,1.3-1.26,3.8-3.77,7.51-.84,1.23-1.81,2.59-2.91,4.08-5.33,7.21-10.19,10.81-14.6,10.81-2.34,0-4.29-1.1-5.86-3.3-.96-1.4-1.44-3.39-1.44-5.97,0-5.66,1.6-12.27,4.82-19.81.78-1.87,2.94-6.39,6.47-13.55-1.24.32-2.18.49-2.82.49-.96,0-1.82-.24-2.55-.7-1.01-.66-1.51-1.48-1.51-2.46,0-1.17.66-2.11,1.99-2.81.37-.19,2.07-.49,5.1-.91,1.1-.19,2.71-.64,4.82-1.34.14-.26.29-.53.45-.8.16-.28.32-.57.5-.86.34-.59.72-1.2,1.13-1.86.34-.54.7-1.1,1.09-1.69.16-.25.32-.51.5-.77.34-.52.69-1.05,1.07-1.6.05-.08.1-.16.16-.24.9-1.31,1.88-2.7,2.95-4.19.08-.12.16-.23.24-.34.92-1.27,1.71-2.33,2.35-3.18.19-.24.36-.46.53-.67.13-.17.26-.33.38-.47.03-.03.06-.06.08-.09.1-.14.2-.26.3-.37.12-.13.22-.26.32-.36,1.1-1.17,2.07-1.76,2.89-1.76.07,0,.15,0,.23.02.06.01.11.02.17.03h.01c.08.02.15.05.23.08.12.04.24.1.35.18.12.07.24.16.36.25.07.06.15.13.22.2.07.06.14.13.2.2,0,.01.02.02.03.03.55.61.82,1.22.82,1.82,0,.05,0,.1-.01.16,0,.06-.01.12-.02.19-.02.13-.05.26-.09.4-.02.08-.04.15-.07.23-.04.11-.08.22-.12.34-.04.12-.1.24-.15.36-.05.13-.11.26-.18.4-.06.14-.13.28-.21.42h0c-.64,1.25-1.64,2.83-3.01,4.74-.33.45-.63.88-.91,1.29-.03.03-.05.06-.07.09-.83,1.18-1.53,2.23-2.1,3.14-.13.21-.25.41-.37.61-.12.19-.23.38-.33.56,5.09-1.41,8.74-2.11,10.95-2.11,2.52,0,3.78,1.08,3.78,3.23Z"/>
      </g>
      <path class="cls-1" d="M346.71,185.89c-2.43,0-5.14,1.05-8.13,3.16-5.09,3.6-9.52,8.66-13.29,15.17-.25.44-.5.87-.73,1.31-.2.36-.39.72-.57,1.08-.14.24-.26.49-.38.73h0c-.04.09-.08.16-.11.24-.2.38-.38.76-.55,1.14-.02.04-.04.08-.06.13-.18.38-.35.77-.52,1.16-.23.53-.45,1.06-.65,1.59-.13.33-.26.66-.37.99-.22.6-.42,1.19-.6,1.77-.13.41-.25.82-.36,1.22-.04.14-.07.28-.11.42-.09.36-.18.72-.26,1.07-.09.39-.18.79-.25,1.18-.01.05-.02.09-.02.14h-.01c-.02.1-.03.18-.04.27-.07.34-.12.68-.17,1.02,0,.05,0,.09-.02.13-.05.37-.09.73-.12,1.09-.07.54-.11,1.07-.13,1.6-.02.42-.03.83-.03,1.25,0,1.78.32,3.3.97,4.56,1.24,2.53,3.19,3.8,5.85,3.8,5.74,0,11.68-5.18,17.84-15.53,5.64-9.55,8.47-17.44,8.47-23.67,0-4.68-1.89-7.02-5.65-7.02ZM340.03,207.17c-1.47,1.69-2.2,2.72-2.2,3.09,0,.52.57,1.24,1.72,2.18.04.05-.28.82-.97,2.32-.69,1.5-1.58,2.95-2.68,4.35-2.53,3.37-4.89,5.06-7.1,5.06-.92,0-1.67-.42-2.27-1.27-.41-.6-.62-1.31-.62-2.1,0-3,1.13-6.77,3.38-11.31.24-.49.49-.99.76-1.48t.01-.01c.27-.49.55-.98.84-1.47.29-.49.59-.97.91-1.44.16-.25.33-.5.51-.75.95-1.38,2.01-2.74,3.19-4.08.22-.26.45-.51.68-.77.48-.53.98-1.06,1.5-1.59,2.84-2.9,5-4.36,6.47-4.36.78,0,1.35.35,1.72,1.06.23.37.35.75.35,1.12,0,2.91-2.07,6.72-6.2,11.45Z"/>
      <path class="cls-1" d="M394.16,202.75c-.78,0-1.54.6-2.27,1.82-1.47,2.72-3.98,6.25-7.51,10.61-2.39,2.99-6.04,6.32-10.95,9.97,1.84-4.31,3.97-8.54,6.41-12.71,2.75-4.78,4.75-8.03,5.99-9.77.45-.6.68-1.07.68-1.4,0-.51-.52-1.29-1.58-2.32,1.42-3.18,2.14-5.85,2.14-8.01,0-1.73-.44-3.04-1.31-3.93-1.29-1.36-2.83-2.04-4.62-2.04-3.49,0-7.5,1.85-12.05,5.55-5.42,4.45-10.05,10.49-13.91,18.13-2.71,5.29-4.06,9.62-4.06,12.99,0,1.45.34,2.86,1.03,4.21,1.1,2.07,2.64,3.09,4.61,3.09,3.17,0,7.17-2.57,11.99-7.72-1.1,2.48-2.67,5.9-4.69,10.25-10.42,5.9-16.36,9.42-17.83,10.54-1.19.86-2.3,1.73-3.33,2.6-1.78,1.5-3.33,3.01-4.66,4.53-.91,1.04-1.71,2.09-2.41,3.15-2.03,3.08-3.18,6.21-3.45,9.4-.04.49-.06.97-.06,1.46,0,1.73.36,3.28,1.1,4.64,1.28,2.34,3.4,3.51,6.33,3.51,4.46,0,9.15-3.2,14.07-9.61,1.27-1.64,2.55-3.49,3.84-5.56.9-1.46,2.01-3.42,3.3-5.88.19-.36.38-.73.58-1.11.7-1.37,1.46-2.88,2.28-4.53,1.49-3.01,3.15-6.47,5-10.4,10.83-6.69,18.96-14.54,24.37-23.53,1.75-2.95,2.62-5.06,2.62-6.32,0-1.08-.55-1.61-1.65-1.61ZM358.94,241.62c-.29.57-.58,1.15-.89,1.73-.21.42-.43.84-.66,1.26-.85,1.61-1.75,3.24-2.7,4.9-.67,1.17-1.36,2.36-2.08,3.55-.4.67-.81,1.34-1.22,2.01-.53.87-1.05,1.68-1.57,2.43-.29.43-.59.84-.88,1.23-.14.19-.28.38-.43.57-.57.74-1.12,1.39-1.67,1.97-.11.13-.23.25-.34.36l-.06.06c-.69.69-1.35,1.24-1.99,1.66-.1.07-.2.14-.31.2h-.01c-.37.23-.72.41-1.07.54-.19.07-.38.14-.56.18-.19.05-.37.09-.55.11-.18.03-.36.04-.54.04-.92,0-1.63-.43-2.14-1.27-.11-.19-.2-.4-.26-.61-.03-.07-.05-.14-.06-.22-.05-.2-.08-.41-.08-.63-.01-.05-.01-.1-.01-.15,0-.57.14-1.27.41-2.11.22-.65.47-1.29.76-1.93.11-.25.23-.5.36-.75.05-.13.12-.27.2-.4.07-.15.15-.29.23-.44.05-.08.09-.17.15-.25.17-.31.35-.61.54-.91.19-.29.38-.58.58-.87,0-.01.01-.02.02-.03.13-.2.27-.39.41-.58.19-.26.39-.52.59-.77.25-.32.51-.63.78-.94.44-.5.88-.99,1.33-1.47.22-.24.44-.47.67-.7.22-.23.44-.45.67-.67.3-.3.61-.6.92-.89l.02-.02c.61-.57,1.24-1.13,1.87-1.65.26-.23.52-.44.79-.65.38-.31.77-.61,1.16-.9,2.69-2.01,5.56-3.67,8.61-4.99-.32.66-.65,1.33-.99,2ZM372.95,208.93s-.37.75-1.24,2.1c-1.29,2.06-2.85,4.17-4.68,6.33-2.9,3.37-5.15,5.05-6.75,5.05-.69,0-1.22-.21-1.59-.63-.37-.42-.55-1.05-.55-1.9,0-1.49.6-3.65,1.79-6.46,2.44-5.62,5.83-10.7,10.19-15.24,3.68-3.84,6.5-5.76,8.47-5.76,1.15,0,1.73.63,1.73,1.9,0,1.07-.58,2.57-1.73,4.49-1.42,2.44-3.28,4.78-5.57,7.03-.69.65-1.04,1.19-1.04,1.61,0,.28.32.77.97,1.48Z"/>
      <g>
        <path class="cls-1" d="M436.03,207.17c.48-.36.94-.72,1.36-1.05-.43.34-.88.69-1.36,1.05Z"/>
        <path class="cls-1" d="M441.81,200.71c0,1.04-1.07,2.51-3.2,4.39h-.01c-.37.33-.77.66-1.21,1.02-.42.33-.88.69-1.36,1.05-4.04,3.09-7.88,4.64-11.5,4.64-1.47,0-2.82-.4-4.07-1.2-1.05-.65-1.58-1.82-1.58-3.51,0-1.17.48-2.5,1.45-4-3.63,2.62-7.9,7.11-12.81,13.48-2.85,3.94-5.67,8.78-8.47,14.54-1.06,2.16-2.37,3.23-3.93,3.23-1.7,0-2.55-.82-2.55-2.46s1.34-5.85,4-12.78c.23-.61.47-1.21.7-1.8.7-1.76,1.4-3.45,2.11-5.06.16-.36.32-.72.47-1.07.41-.92.83-1.81,1.24-2.68,1.02-2.14,2.06-4.13,3.1-5.98.26-.47.52-.92.79-1.36.26-.45.52-.88.79-1.31.39-.64.79-1.26,1.19-1.86.2-.3.4-.59.59-.88.21-.29.41-.58.61-.86.27-.37.54-.73.81-1.09.17-.22.33-.43.49-.64.32-.41.64-.79.96-1.15.26-.29.51-.57.76-.83l.35-.35c.6-.59,1.17-1.07,1.72-1.43.11-.07.22-.14.32-.2.5-.3.97-.5,1.43-.6.1-.02.2-.04.3-.05.11-.01.23-.02.34-.02.6,0,1.15.19,1.66.56.59.47.89,1.06.89,1.76s-.46,1.68-1.37,2.95c-.19.23-1.41,1.8-3.65,4.71-2.07,2.76-3.65,5.5-4.76,8.21,4.5-4.91,9.69-9.71,15.57-14.4,2.11-1.68,4.36-3.25,6.75-4.7,1.19-.7,1.95-1.06,2.27-1.06.69,0,1.38.52,2.07,1.55.41.56.61,1.08.61,1.54,0,.85-.87,2-2.61,3.45-4.69,3.79-7.03,6.65-7.03,8.57,0,1.07.6,1.61,1.79,1.61,1.98,0,5.38-1.66,10.2-4.99.82-.56,1.51-.84,2.06-.84.37,0,.74.19,1.1.56.11.11.21.23.29.35.1.15.18.3.24.46.06.17.09.35.09.53Z"/>
      </g>
      <path class="cls-1" d="M509.58,191.75c-1.01-1.19-2.53-1.79-4.55-1.79-1.79,0-3.62.47-5.51,1.41-.91.46-2.31,1.31-4.2,2.52.78-1.4,1.84-3.27,3.17-5.61,1.1-1.83,1.65-3.28,1.65-4.36,0-1.92-.78-2.88-2.34-2.88s-3.07,1.52-4.68,4.57c-.6,1.12-1.77,3.18-3.51,6.18-6.21,10.48-12.68,22.94-19.41,37.39-.26-.3-.59-.54-.98-.73-1.56-.75-2.5-1.28-2.82-1.61-1.15-1.27-1.72-2.88-1.72-4.85,0-2.43.71-5.66,2.13-9.69,1.33-3.8,2.67-6.84,4-9.13,1.28-2.25,1.93-3.87,1.93-4.85,0-.75-.35-1.62-1.04-2.6.78-1.83,1.17-3.25,1.17-4.28,0-1.36-.55-2.58-1.65-3.66-1.29-1.21-2.89-1.82-4.82-1.82-3.08,0-6.27,1.22-9.57,3.65-3.74,2.78-7.09,6.44-10.02,10.99-1.03,1.59-2,3.28-2.93,5.09-.42.82-.81,1.64-1.18,2.44-2.42,5.33-3.64,10.26-3.64,14.77,0,2.11.44,3.94,1.31,5.48,1.38,2.39,3.3,3.58,5.78,3.58,2.85,0,5.72-1.82,8.61-5.47,1.47-1.88,2.96-4.17,4.48-6.89-.19,2.16-.28,3.7-.28,4.64,0,2.76.74,5.06,2.21,6.88,1.79,2.25,3.92,3.37,6.4,3.37.06,0,.12,0,.18-.01-1.49,3.28-3,6.66-4.51,10.13-.1.21-.19.42-.28.63-2.99,6.87-5.25,12.36-6.76,16.45-1.55,4.19-2.33,6.93-2.33,8.2,0,.8.25,1.53.75,2.18.69.94,1.38,1.41,2.07,1.41,1.42,0,2.66-1.62,3.72-4.85.85-2.32,1.73-4.63,2.62-6.94.54-1.4,1.09-2.8,1.65-4.19.96-2.42,1.95-4.84,2.97-7.24.78-1.89,1.59-3.77,2.42-5.65,2.29-5.27,4.7-10.49,7.21-15.67,1.98,1.6,3.97,2.39,5.99,2.39,3.67,0,7.6-1.75,11.78-5.27,4.96-4.16,9.18-9.87,12.67-17.13,2.25-4.59,3.37-8.53,3.37-11.8,0-2.39-.5-4.18-1.51-5.38ZM456.21,216.72c-2.94,4.78-5.51,7.17-7.71,7.17-.88,0-1.53-.31-1.97-.92-.44-.6-.65-1.49-.65-2.66,0-4.78,2.25-10.61,6.75-17.5,4.08-6.22,7.87-9.34,11.36-9.34.73,0,1.42.25,2.07.74.64.49,1.24,1.25,1.79,2.28-.97.8-1.63,1.48-2,2.04-.74,1.08-1.91,3.28-3.51,6.6-2.44,5.11-4.48,8.97-6.13,11.59ZM502.42,204.29c-1.15,3-2.69,5.92-4.62,8.78-5.19,7.73-9.91,11.59-14.18,11.59-1.52,0-2.78-.54-3.79-1.62.83-1.54,2.5-4.77,5.03-9.69,2.75-5.34,5.62-9.48,8.6-12.43,3.13-3.04,5.77-4.57,7.92-4.57.83,0,1.44.21,1.83.64.39.42.58,1.05.58,1.89,0,1.22-.45,3.02-1.37,5.41Z"/>
      <g>
        <path class="cls-1" d="M560.75,208.56c.46-.74.94-1.49,1.45-2.26-.51.77-1,1.52-1.45,2.26Z"/>
        <path class="cls-1" d="M601.24,205.48c-.59,0-1.18.39-1.75,1.17-.32.43-.63.97-.94,1.64-.73,1.67-2.52,4.03-5.35,7.09-.68.74-1.42,1.51-2.22,2.33-2.43,2.52-5.12,4.66-8.06,6.39,1.56-4.12,3.79-8.81,6.68-14.05,1.13-2.07,2.33-4.24,3.6-6.51.79-1.42,1.61-2.88,2.46-4.38,1.84-3.18,2.76-5.45,2.76-6.81,0-.8-.28-1.5-.83-2.11-.6-.65-1.26-.98-2-.98s-1.56.33-2.39,1c-.48.38-.96.87-1.46,1.46-.6.65-2.18,2.74-4.75,6.25-2.85,3.98-4.46,6.2-4.82,6.67-1.8,2.2-4.28,4.92-7.44,8.15-5.05,5.1-8.5,7.66-10.33,7.66-.92,0-1.38-.5-1.38-1.48,0-1.69,1.26-4.35,3.79-8.01,2.2-3.23,4.61-6.22,7.23-8.99,2.48-2.67,3.98-4.39,4.51-5.16.53-.77.79-1.67.79-2.7,0-.71-.25-1.32-.76-1.83-.55-.66-1.19-.98-1.92-.98-2.67,0-6.98,4.26-12.95,12.78-.27.38-.52.75-.77,1.12-.26.37-.5.74-.74,1.1-.51.77-.99,1.52-1.45,2.26-.23.37-.45.74-.66,1.1-.21.36-.42.7-.61,1.05-.02.03-.03.05-.05.08-.19.34-.37.67-.55,1-.38.7-.73,1.37-1.05,2.04-.12.23-.23.47-.34.7-.12.26-.23.51-.34.75-.36.81-.67,1.59-.94,2.35-.11.3-.21.6-.3.89-.09.28-.17.54-.25.81-.02.06-.03.12-.05.18-.12.44-.23.88-.32,1.3-.08.37-.15.72-.2,1.07-.07.41-.12.81-.15,1.21-.01.13-.02.25-.03.38-.01.26-.02.52-.02.77,0,1.4.35,2.57,1.04,3.51.92,1.17,2.16,1.76,3.72,1.76,3.21,0,7.23-2.34,12.05-7.03,2.43-2.39,5.69-6.04,9.78-10.96-1.43,3.1-3.08,6.56-4.96,10.4-1.7,3.56-2.96,6.42-3.79,8.57-1.33.84-3.17,1.94-5.51,3.3-5.78,3.37-10.15,6.18-13.08,8.43-1.06.8-2.06,1.6-3,2.39-3.46,2.93-6.18,5.83-8.16,8.71-.96,1.39-1.75,2.79-2.36,4.18-.61,1.4-1.05,2.8-1.29,4.19-.19.98-.28,1.96-.28,2.94,0,2.57.67,4.7,2,6.39,1.7,2.2,3.95,3.3,6.75,3.3,5.86,0,11.56-4.21,17.12-12.63.86-1.29,1.71-2.69,2.56-4.19.07-.13.15-.26.22-.39.13-.23.26-.47.39-.71,1.88-3.45,3.83-7.38,5.84-11.79,1.53-3.4,3.11-7.07,4.72-11.03,5.52-3.13,10.36-6.77,14.55-10.93,1.32-1.32,2.58-2.68,3.77-4.1.95-1.13,1.79-2.2,2.52-3.2,2.45-3.36,3.68-5.99,3.68-7.9,0-1.31-.64-1.97-1.93-1.97ZM566.67,243.77c-.13.28-.25.56-.37.84-.77,1.69-1.45,3.2-2.05,4.53-1.04,2.28-1.85,4.02-2.43,5.21-.02.04-.04.08-.06.12-.15.32-.28.59-.4.82-.14.26-.25.47-.34.63-1.05,1.86-2.08,3.48-3.09,4.86-.12.16-.24.32-.35.47s-.22.3-.34.44c-.17.22-.33.43-.51.64-.17.2-.34.4-.5.59-.04.05-.08.09-.12.14-.17.19-.34.37-.5.54-.7.74-1.38,1.35-2.06,1.84-.21.15-.41.29-.62.42-.02.01-.03.02-.04.02-.21.13-.43.25-.64.36-.25.13-.5.24-.74.33-.25.09-.49.16-.73.22-.16.04-.31.07-.46.09-.08.02-.16.03-.24.03-.16.02-.33.03-.49.03-1.1,0-2-.42-2.68-1.26-.51-.61-.76-1.36-.76-2.25,0-.57.05-1.15.15-1.74.02-.11.03-.23.07-.35-.01-.02,0-.04.01-.06.02-.12.05-.24.08-.36.03-.15.07-.31.12-.47.03-.12.07-.24.1-.36.13-.42.28-.85.47-1.28.05-.11.1-.23.15-.35.22-.5.48-1.01.78-1.53.16-.28.33-.56.51-.84.21-.33.42-.65.66-.98.14-.2.3-.41.46-.62.08-.1.15-.2.23-.3.11-.14.22-.29.35-.44.12-.14.24-.29.37-.44.37-.46.79-.92,1.23-1.39.16-.17.32-.34.49-.51.46-.48.96-.97,1.48-1.46.3-.27.59-.54.88-.81.35-.3.69-.6,1.03-.9.32-.28.64-.55.95-.81,1.17-1,2.35-1.94,3.51-2.82,1.87-1.41,3.72-2.67,5.55-3.78.3-.18.6-.36.9-.53.71-.42,1.42-.8,2.12-1.17-.78,1.68-1.49,3.23-2.13,4.64Z"/>
        <path class="cls-1" d="M557.24,207.1c0,1.83-1.75,5.32-5.24,10.47-.53.79-1.07,1.55-1.61,2.27-2.54,3.39-5.17,6.08-7.89,8.05-2.34,1.64-4.46,2.46-6.34,2.46s-3.4-.87-4.27-2.6c-.55-1.08-.82-2.27-.82-3.58,0-4.17,1.44-8.92,4.33-14.26.69-1.26,2.76-4.87,6.2-10.82-9.36,4.83-17.28,15.24-23.76,31.26-.59,1.83-1.51,2.74-2.75,2.74-.87,0-1.58-.31-2.14-.91-.55-.66-.82-1.46-.82-2.39,0-1.55,1.47-5.93,4.41-13.14,5.46-13.39,10.55-24.72,15.28-33.99,1.58-3.13,3.22-6.3,4.92-9.51.8-1.5,1.6-3.01,2.42-4.53,1.25-2.3,2.52-4.62,3.82-6.95,1.03-1.85,2.08-3.72,3.15-5.6.48-.85.97-1.7,1.46-2.56,1.38-2.44,2.46-4.08,3.24-4.92.78-.84,1.61-1.26,2.48-1.26s1.54.44,2.14,1.33c.45.66.68,1.4.68,2.25,0,1.29-.71,3.01-2.13,5.16-.02.03-.04.07-.07.11-.85,1.34-1.7,2.7-2.54,4.08-.72,1.17-1.43,2.35-2.14,3.55-1.8,3.01-3.59,6.12-5.37,9.34-1.59,2.85-3.18,5.79-4.76,8.8-5.28,10.03-8.51,16.86-9.71,20.51,3.4-3.6,6.8-6.62,10.2-9.06,4.36-3.09,7.48-4.63,9.36-4.63.78,0,1.54.33,2.27.98.83.75,1.24,1.62,1.24,2.6,0,1.26-.98,3.23-2.96,5.9-3.81,5.15-6.7,9.83-8.68,14.05-1.74,3.65-2.61,6.13-2.61,7.44s.59,1.9,1.79,1.9c2.48,0,6.65-4.5,12.53-13.49,1.2-1.82,2.28-2.74,3.24-2.74.36,0,.65.08.88.24.38.26.57.75.57,1.45Z"/>
      </g>
      <g>
        <path class="cls-1" d="M560.75,208.56c.46-.74.94-1.49,1.45-2.26-.51.77-1,1.52-1.45,2.26Z"/>
        <path class="cls-1" d="M560.75,208.56c.46-.74.94-1.49,1.45-2.26-.51.77-1,1.52-1.45,2.26Z"/>
      </g>
    </g>
  </g>
</svg>